# xmcd
#
# Track frame offsets:
#	182
#	21330
#	25260
#	39382
#	57880
#	76480
#	79335
#	82665
#	96432
#	105762
#	110800
#	124922
#	141442
#	149467
#	159860
#	172477
#
# Disc length: 2406 seconds
#
# Revision: 6
# Processed by: cddbd v1.5.2PL0 Copyright (c) Steve Scherf et al.
# Submitted via: audiograbber 1.83.01
#
DISCID=d6096410
DTITLE=Soundtrack - Even Cowgirls Get The Blues (music by k.d. lang)
DYEAR=1993
DGENRE=Soundtrack
TTITLE0=Just Keep Me Moving
TTITLE1=Much Finer Place
TTITLE2=Or Was I
TTITLE3=Hush Sweet Lover
TTITLE4=Myth
TTITLE5=Apogee
TTITLE6=Virtual Vortex
TTITLE7=Lifted By Love
TTITLE8=Overture
TTITLE9=Kundalini Yoga Waltz
TTITLE10=In Perfect Dreams
TTITLE11=Curious Soul Astray
TTITLE12=Ride Of Bonanza Jellybean
TTITLE13=Don't Be A Lemming Polka
TTITLE14=Sweet Little Cherokee
TTITLE15=Cowgirl Pride
EXTD=YEAR: 1993
EXTT0=
EXTT1=
EXTT2=
EXTT3=
EXTT4=
EXTT5=
EXTT6=
EXTT7=
EXTT8=
EXTT9=
EXTT10=
EXTT11=
EXTT12=
EXTT13=
EXTT14=
EXTT15=
PLAYORDER=
